<?xml version="1.0" encoding="utf-8"?>
<!-- Generator: Adobe Illustrator 27.5.0, SVG Export Plug-In . SVG Version: 6.00 Build 0)  -->
<svg version="1.1" id="Layer_1" xmlns="http://www.w3.org/2000/svg" xmlns:xlink="http://www.w3.org/1999/xlink" x="0px" y="0px"
	 viewBox="0 0 3000 2000" style="enable-background:new 0 0 3000 2000;" xml:space="preserve">
<rect style="fill:#FFFFFF;" width="3000" height="2000"/>
<g>
	<path style="fill:#EDF4FF;" d="M274.665,1696.633c0.127,0.091,2479.416-0.294,2479.416-0.294
		c69.437-142.268,109.259-297.723,82.938-455.108c-33.08-198.205-187.896-363.398-349.691-436.721
		c-94.464-42.992-182.027-48.593-259.488-41.467c-103.75,9.546-189.193,41.908-249.002,38.008
		c-36.674-2.396-66.576-24.682-98.711-57.544c-42.438-43.41-88.271-104.581-158.852-163.272
		c-51.145-42.511-115.143-83.488-199.828-114.824c-0.046-0.018-0.082-0.027-0.118-0.046
		c-194.805-72.069-509.428-86.897-707.673-4.385c-50.726,21.097-241.84,115.496-297.913,275.183
		c-17.71,50.4-21.959,107.299-4.103,170.453c63.199,223.476-33.025,251.29-153.423,357.79
		C197.522,1406.535,145.779,1598.321,274.665,1696.633z"/>
	<path style="fill:#A8D29F;" d="M2716.259,1696.784h-58.879c-3.155-2.677,2.184-8.755,7.761-9.163
		c2.424-0.184,5.486,0.324,8.987,1.063c0.81-10.762,5.438-59.141,22.876-57.196c19.607,2.176,0,21.305-5.543,32.63
		c-4.106,8.389-8.438,20.418-10.417,26.095c1.592,0.345,3.24,0.683,4.923,0.993c2.6-7.979,12.27-34.821,24.566-33.257
		c14.438,1.83,8.635,12.593-1.599,18.98c-7.508,4.697-16.728,11.374-21.108,14.6c3.712,0.606,7.586,1.015,11.516,0.923
		C2709.428,1692.213,2714.351,1695.186,2716.259,1696.784z"/>
	<path style="fill:#A8D29F;" d="M433.585,1692.139c-5.029-7.899-20.162-28.4-40.318-25.688
		c-21.961,2.956,24.255,17.436,38.404,25.747c-3.142,0.044-5.845-0.208-7.828-0.915c-9.46-3.371-25.66,3.095-30.839,5.363h90.054
		c-0.623-2.154-2.245-5.672-6.439-8.235c-1.479-0.903-4.451-1.03-8.288-0.737c5.355-6.313,9.073-26.478-5.833-21.288
		c-10.889,3.79-10.86,16.11-9.791,23.4c-2.316,0.364-4.666,0.729-6.987,1.063c-4.483-22.85-20.341-89.819-52.484-91.605
		c-32.585-1.81,27.632,69.453,47.682,92.245C438.348,1691.799,435.875,1692.031,433.585,1692.139z"/>
	<g>
		<path style="fill:#FFB27D;" d="M1031.897,989.117l7.46-8.998c0,0,5.922-21.294,29.612-17.261c0,0,9.654,2.398,5.745,8.434
			c-3.909,6.037-3.281,3.156-8.606,11.787c-5.325,8.632-14.151,14.04-21.457,12.724l-8.161,1.91L1031.897,989.117z"/>
		<path style="fill:#1E3D70;" d="M1043.695,987.177c-4.979-6.779-6.357-7.061-6.357-7.061s-73.517,33.917-80.191,37.555
			c-17.568,9.576-117.876,4.751-117.876,4.751l-13.892,56.697c0,0,124.938-9.012,148.459-21.742
			c27.992-15.151,74.173-59.178,74.173-59.178S1047.604,992.502,1043.695,987.177z"/>
	</g>
	<g>
		<g>
			<g>
				<g>
					<path style="fill:#F7B284;" d="M1388.504,520.021l-27.351,290.808l-31.538,335.312
						c-6.551,69.648-68.895,121.267-138.543,114.716c-69.649-6.551-121.267-68.895-114.716-138.532l18.177-193.291l40.723-432.84
						c6.551-69.638,71.9-153.21,141.537-146.659C1276.793,349.534,1392.083,373.801,1388.504,520.021z"/>
					<path style="fill:#E8A070;" d="M1164.183,585.253c0,0,44.214-61.411,188.044-76.145
						C1352.227,509.108,1296.835,593.209,1164.183,585.253z"/>
					<path style="fill:#E8A070;" d="M1137.474,699.542c0,0,52.016-72.247,221.225-89.58
						C1358.698,609.962,1293.532,708.902,1137.474,699.542z"/>
					<path style="fill:#E8A070;" d="M1127.181,808.963c0,0,52.016-72.247,221.225-89.58
						C1348.405,719.383,1283.239,818.323,1127.181,808.963z"/>
					<path style="fill:#E8A070;" d="M1194.373,479.487c0,0,31.002-43.06,131.854-53.391
						C1326.227,426.096,1287.387,485.065,1194.373,479.487z"/>
				</g>
				<path style="fill:#EFA97A;" d="M1361.153,810.828l-31.538,335.312c-6.551,69.648-68.895,121.267-138.543,114.716
					c-69.649-6.551-121.267-68.895-114.716-138.532l18.177-193.291c18.257-16.253,39.338-26.27,63.392-25.325
					C1243.792,907.063,1326.937,841.184,1361.153,810.828z"/>
			</g>
			<g>
				<g>
					<path style="fill:#A8D29F;" d="M1470.016,736.88c-0.067,1.306-0.112,1.992-0.112,1.992s-0.214-0.664-0.63-1.936
						c-3.411-10.513-20.069-62.4-35.23-120.175c-20.969-79.936-39.067-171.128-15.251-179.558
						c45.112-15.983,53.43,111.733,53.554,205.975C1472.425,689.606,1470.5,727.898,1470.016,736.88z"/>
					<path style="fill:#A8D29F;" d="M1514.16,633.093c-16.298,36.164-30.446,66.588-38.562,84.81
						c-3.534,7.946-5.92,13.563-6.844,16.332c0.788-4.502,2.915-16.579,5.954-33.766c0-0.011,0-0.011,0-0.022
						c4.559-25.753,11.177-62.952,18.438-103.348c17.626-98.182,39.078-215.16,44.087-231.885
						c8.836-29.5,49.558-92.306,76.965-37.661C1632.005,363.063,1563.29,524.095,1514.16,633.093z"/>
					<path style="fill:#A8D29F;" d="M1517.446,684.688c-16.85,17.784-31.009,32.202-38.921,40.171
						c-4.322,4.367-6.776,6.798-6.776,6.798s4.312-9.196,11.661-23.884c6.944-13.878,16.59-32.652,27.868-53.193
						c36.952-67.33,91.35-153.625,125.082-148.64C1674.854,511.624,1578.519,620.228,1517.446,684.688z"/>
					<path style="fill:#82B378;" d="M1470.016,736.88c-0.236,0.011-0.483,0.034-0.742,0.056
						c-3.411-10.513-20.069-62.4-35.23-120.175c7.068,10.591,19.855,24.796,38.303,26.416
						C1472.425,689.606,1470.5,727.898,1470.016,736.88z"/>
					<path style="fill:#82B378;" d="M1514.16,633.093c-16.298,36.164-30.446,66.588-38.562,84.81
						c-0.619-5.087-0.89-10.985-0.89-17.434c0-0.011,0-0.011,0-0.022c4.559-25.753,11.177-62.952,18.438-103.348
						C1495.982,611.201,1501.892,626.824,1514.16,633.093z"/>
					<path style="fill:#82B378;" d="M1517.446,684.688c-16.85,17.784-31.009,32.202-38.921,40.171
						c0.765-4.581,2.543-10.524,4.885-17.086c6.944-13.878,16.59-32.652,27.868-53.193
						C1511.537,663.19,1512.764,676.021,1517.446,684.688z"/>
				</g>
				<path style="fill:#A8D29F;" d="M1468.744,734.257c-0.226,1.26-0.338,1.924-0.338,1.924
					C1468.237,736.092,1468.35,735.439,1468.744,734.257z"/>
				<path style="fill:#ED7D2B;" d="M1491.367,864.078c-28.262,80.071-63.458,167.38-63.458,167.38l-79.509-23.828
					c0,0,9.309-59.305,22.973-125.296c15.938-76.942,37.784-163.001,57.729-174.775c9.105-5.38,18.718-8.138,28.217-8.836
					c4.795-0.36,9.567-0.203,14.228,0.417c1.114,0.146,2.206,0.315,3.309,0.506c2.758,0.495,5.47,1.137,8.116,1.925
					c1.036,0.293,2.059,0.619,3.073,0.979c3.522,1.193,6.922,2.634,10.163,4.277c13.766,7.001,24.56,17.648,29.197,28.915
					C1530.131,747.201,1512.73,803.58,1491.367,864.078z"/>
			</g>
			<g>
				<path style="fill:#FFB93E;" d="M1487.189,941.033c-11.574,64.95-7.908,133.884,10.883,205.303
					c3.137,11.911,11.389,21.464,22.059,26.521c4.78,2.265,10.04,3.624,15.549,3.905c12.006-1.783,32.578-27.009,42.145-56.814
					c2.627-8.197,4.43-16.733,4.985-25.239c4.363-66.398,18.413-147.613,43.949-191.748
					c26.108-45.133,62.167-99.776,116.505-141.583c0,0,0.005-0.01,0.021-0.015c5.235-4.083,125.384-120.947,125.384-120.947
					c11.328-16.018-6.74-29.563-6.74-29.563s-11.14,12.993-46.8,40.934c-35.656,27.929-107.647,11.475-107.672,11.475
					c-20.354-5.909-42.924-1.783-60.077,12.309c-26.471,21.745-61.098,55.02-91.993,100.214
					C1520.627,826.633,1497.679,882.232,1487.189,941.033z"/>
				<path style="fill:#FFA412;" d="M1582.81,1094.708c4.363-66.398,18.413-147.613,43.949-191.748
					c26.108-45.133,62.167-99.776,116.505-141.583c0,0,0.005-0.01,0.021-0.015c0.923-0.896,36.691-36.108-11.453-56.47
					c-47.117-19.925-196.31,200.095-154.007,415.056C1580.451,1111.75,1582.254,1103.214,1582.81,1094.708z"/>
			</g>
			<g>
				<path style="fill:#A8D29F;" d="M1161.172,888.609c-5.594,8.791-12.459,17.3-20.563,25.28
					c-30.705,30.244-78.9,52.676-140.941,52.09c0,0-26.045-24.83-38.673-56.423l0.011-0.012
					c-8.757-21.914-15.15-54.183-0.011-78.135c9.758-15.431,22.308-22.736,35.026-26.586c21.611-6.573,43.705-3.185,53.362-12.809
					c9.522-9.488,23.074-17.683,37.954-22.398c2.431-0.776,4.896-1.463,7.395-2.026h0.011c1.036-0.247,2.061-0.473,3.106-0.675
					c0.022-0.011,0.046-0.011,0.068-0.011c22.938-4.48,47.441-0.091,64.482,20.36c3.95,4.739,7.541,10.468,10.591,17.356
					C1183.908,829.158,1179.215,860.279,1161.172,888.609z"/>
				<path style="fill:#D1F2C9;" d="M980.726,827.857c0,0-20.474,16.073-14.2,33.854c6.274,17.781,22.454,9.568,27.516-2.749
					C999.103,846.646,994.185,821.886,980.726,827.857z"/>
				<path style="fill:#95C38B;" d="M1162.396,787.26c3.953,4.74,7.542,10.477,10.598,17.363
					c10.917,24.536,25.903,89.619,7.865,117.955l-24.199,22.136c-30.703,30.246-94.951,21.849-156.989,21.26
					c0,0-26.043-24.828-38.675-56.42l0.009-0.009c0,0,76.745,30.363,149.028-33.026
					C1142.86,847.724,1156.874,814.719,1162.396,787.26z"/>
				<g>
					<path style="fill:#A8D29F;" d="M1045.345,754.893c-12.668-7.545-25.486,3.054-40.364,8.871
						c-14.887,5.826-43.523,5.708-43.523,5.708s11.778-16.954,31.083-33.798C1011.846,718.829,1045.345,754.893,1045.345,754.893z"
						/>
					<path style="fill:#82B378;" d="M1045.345,754.893c-11.904-9.772-33.924-15.376-44.668-10.979
						c-10.744,4.397-39.22,25.559-39.22,25.559s11.778-16.954,31.083-33.798C1011.846,718.829,1045.345,754.893,1045.345,754.893z"
						/>
				</g>
				<path style="fill:#95C38B;" d="M1049.383,792.015c9.522-9.488,23.074-17.683,37.954-22.398
					c-25.303,9.488-39.26,41.555-48.86,37.841c-10.299-3.996-41.273-2.69-42.456-2.634
					C1017.632,798.25,1039.726,801.638,1049.383,792.015z"/>
				<path style="fill:#95C38B;" d="M1097.849,766.915c-0.799,0.225-1.823,0.45-3.106,0.675
					C1095.778,767.343,1096.803,767.118,1097.849,766.915z"/>
				<g>
					<path style="fill:#82B378;" d="M1040.266,806.813L1040.266,806.813c-8.115-17.929-3.729-40.169,1.379-55.669
						c4.067-12.334,11.863-28.987,15.692-36.903c0.81-1.672,3.238-1.503,3.821,0.261l1.543,4.672
						c1.546,4.681,0.98,9.801-1.571,14.019c-7.842,12.965-23.595,43.271-16.5,68.219
						C1045.429,804.219,1041.704,810.024,1040.266,806.813z"/>
				</g>
			</g>
			<path style="fill:#DB6F26;" d="M1491.367,864.078c-28.262,80.071-63.458,167.38-63.458,167.38l-79.509-23.828
				c0,0,9.309-59.305,22.973-125.296l0.022-0.067c0,0,16.141,36.254,54.409,35.5
				C1447.606,917.338,1473.303,888.671,1491.367,864.078z"/>
		</g>
		<g>
			<path style="fill:#FCECDB;" d="M1655.695,913.416l89.156,635.108c11.059,78.771-50.104,149.118-129.646,149.118h-134.329
				c-67.831,0-120.638-58.899-113.261-126.328l75.45-590.79L1655.695,913.416z"/>
			<g>
				<path style="fill:#FCECDB;" d="M1187.468,913.416c0,0,216.104,73.683,468.228,0l-74.286,786.234h-470.479L1187.468,913.416z"/>
				<path style="fill:#F9DDBF;" d="M1187.468,913.416l89.157,635.108c11.058,78.771-50.105,149.118-129.647,149.118h-134.328
					c-67.832,0-120.639-58.899-113.262-126.328l63.864-657.898c0,0,29.872,21.613,106.409,21.613
					C1145.462,935.028,1187.468,913.416,1187.468,913.416z"/>
				<g>
					<path style="fill:#F9DDBF;" d="M1449.496,1178.509c-10.777,0-22.049-0.94-33.784-2.834
						c-95.073-15.342-124.38-183.054-125.581-190.187l18.868-3.18c0,0.001,0,0.002,0,0.003l0,0
						c0.097,0.565,7.201,41.762,24.836,83.967c15.699,37.57,43.176,83.77,84.926,90.506c47.481,7.664,86.008-1.843,111.404-27.49
						c30.088-30.384,40.774-81.444,30.088-143.777l18.859-3.234c11.758,68.589-0.797,125.582-35.35,160.475
						C1520.356,1166.394,1488.166,1178.509,1449.496,1178.509z"/>
				</g>
				<circle style="fill:#F9DDBF;" cx="1301.028" cy="984.221" r="16.739"/>
				<circle style="fill:#F9DDBF;" cx="1570.597" cy="984.221" r="16.739"/>
			</g>
		</g>
		<g>
			<g>
				<polygon style="fill:#F9DDBF;" points="1453.719,1260.588 1486.14,1278.726 1521.508,1224.766 1477.751,1224.766 				"/>
				<path style="fill:#F9DDBF;" d="M1516.917,1276.118l-12.866,7.255l41.264,1.757l15.757-31.684l-12.017,6.348l-20.404-33.555
					c0,0-21.766,32.421-21.992,33.102c0,0,10.259,16.777,10.996,17.287L1516.917,1276.118z"/>
			</g>
			<g>
				<polygon style="fill:#F9DDBF;" points="1569.563,1292.304 1537.465,1311.005 1565.957,1368.891 1588.197,1331.207 				"/>
				<path style="fill:#F9DDBF;" d="M1524.151,1334.549l0.207-10.481l-22.487,34.643l19.277,29.674l-0.278-13.982l40.188-0.109
					c0,0-19.645-39.202-20.115-39.743H1524.151L1524.151,1334.549z"/>
			</g>
			<g>
				<polygon style="fill:#F9DDBF;" points="1484.291,1374.401 1483.941,1335.972 1423.97,1334.549 1443.651,1374.401 				"/>
				<path style="fill:#F9DDBF;" d="M1468.581,1309.174l12.01,8.6l-15.833-38.146l-35.375-0.902l10.829,8.211l-17.505,40.761
					c0,0,36.896,0.62,37.607,0.538c0,0,8.267-19.062,8.417-19.944L1468.581,1309.174z"/>
			</g>
		</g>
	</g>
	<path style="fill:#FFB27D;" d="M784.424,1011.566c0,0,22.043,26.151,50.116,15.211c0,0,6.038-14.605,6.125-25.372
		c0.009-1.325,0.026-2.608,0.046-3.831c0.15-12.124,0.559-18.927,0.559-18.927s-0.008-0.003-0.028-0.005
		c-1.277-0.533-42.914-17.628-42.878-16.208C799.078,995.226,784.424,1011.566,784.424,1011.566z"/>
	<path style="fill:#ED975D;" d="M802.543,970.254c4.015,7.442,17.792,22.002,38.167,27.321c0.15-12.124,0.559-18.927,0.559-18.927
		s-0.008-0.003-0.028-0.005C840.089,978.332,801.349,968.06,802.543,970.254z"/>
	<path style="fill:#FFB27D;" d="M849.99,977.387c0,0-46.825,11.009-53.231-18.257c-6.406-29.265-16.765-47.554,12.861-55.819
		c29.624-8.266,37.898,1.626,42.411,10.874C856.546,923.433,862.005,973.77,849.99,977.387z"/>
	<path style="fill:#A9453D;" d="M798.361,967.104c-0.639,0.41-10.715,3.505-29.794-34.506c-2.996-5.968-5.036-18.875,1.946-30.281
		c6.981-11.406,31.739-20.373,52.307-24.275c20.569-3.903,25.506,7.671,30.351,19.303c5.085,12.211,19.769,22.264,19.769,22.264
		c-17.737,9.908-39.1-4.263-46.501-1.933c-7.401,2.33-10.015,13.994-10.569,17.733c-0.556,3.739-1.409,6.846-10.716,3.506
		c-9.307-3.339-4.209,13.188-2.718,16.349C802.435,955.265,803.699,963.684,798.361,967.104z"/>
	<g>
		<path style="fill:#2C3A64;" d="M677.74,1696.916h-28.352c-5.944,0-12.548-5.95-14.202-16.845
			c-1.653-10.904-13.87-16.847-16.516-25.767c-2.644-8.919,10.903-21.476,10.903-21.476l2.265-2.91l2.356-3.032l22.459,5.281
			c0,0,0.554,5.348,0.901,12.16c0.24,4.918,0.372,10.604,0.091,15.589c-0.661,11.896,3.33,24.7,13.894,27.015
			C682.113,1689.246,677.74,1696.916,677.74,1696.916z"/>
		<path style="fill:#2C3A64;" d="M875.119,1696.916h-75.156c-0.719-0.14-1.264-0.297-1.595-0.462
			c-5.018-2.514-3.447-21.724-2.844-27.659c0.116-1.099,0.199-1.743,0.199-1.743s26.428-21.138,30.063-4.952
			c0.117,0.505,0.249,1.001,0.389,1.488v0.009c4.588,15.143,25.097,22.021,36.943,23.938
			C872.169,1689.007,874.517,1694.279,875.119,1696.916z"/>
		<path style="fill:#2B478B;" d="M859.972,1263.518c0,0-4.013,50.075-8.731,110.269c-6.413,81.767-14.122,182.204-14.885,201.231
			c-1.318,33.039-6.61,85.89-6.61,85.89s-12.546,12.556-37.658,7.264c0,0-22.377-75.444-28.769-155.269
			c-0.099-1.309-0.197-2.627-0.297-3.944c-5.946-81.262-15.191-252.377-15.191-252.377L859.972,1263.518z"/>
		<path style="fill:#233862;" d="M859.972,1263.518c0,0-4.013,50.075-8.731,110.269l-87.922,139.116
			c-0.099-1.309-0.197-2.627-0.297-3.944c-5.946-81.262-15.191-252.377-15.191-252.377L859.972,1263.518z"/>
		<path style="fill:#2B478B;" d="M841.643,1269.465c0,0-72.343,181.352-119.91,266.577c-47.569,85.227-62.434,109.01-62.434,109.01
			s-27.252-10.901-29.731-18.334c0,0,18.19-164.532,50.046-204.64c18-22.664,39.144-90.677,40.136-114.461
			c0.99-23.784,6.44-70.855,6.44-70.855L841.643,1269.465z"/>
	</g>
	<path style="fill:#2A4E96;" d="M875.244,1119.624c-0.282,15.508-1.183,32.941-2.397,50.647c-0.075,1.05-0.149,2.1-0.224,3.149
		c-0.776,10.969-1.619,21.963-2.587,32.685c-0.388,4.298-0.802,8.548-1.232,12.722l-0.066,0.562
		c-0.033,1.563-0.223,3.257-0.398,4.803c-3.95,40.157-8.092,71.883-8.861,72.37c-0.917,0.612-1.951,0.917-3.083,0.786
		c-10.531-1.323-41.951,1.065-67.674-4.53c-21.707-4.58-40.398-13.259-60.203-24.964c-2.629-1.555-8.621-5.67-8.133-8.745
		c0.479-3.382,1.364-8.267,2.487-14.409c3.902-21.358,10.64-58.103,12.938-101.103c0.446-8.011,1.1-15.921,1.942-23.699
		c2.207-20.261,5.745-39.505,10.49-56.599c8.82-31.759,26.565-55.496,42.825-65.011c2.124-1.19,8.935,3.725,19.433,10.462
		c9.697,6.216,18.9,6.635,28.77,3.008l9.638,15.501c10.58,12.3,21.848,28.675,24.922,51.952c0.231,1.721,0.43,3.547,0.595,5.488
		C875.276,1094.182,875.483,1106.184,875.244,1119.624z"/>
	<path style="fill:#1E3D70;" d="M875.244,1119.624c-0.282,15.508-1.183,32.941-2.397,50.647c-0.075,1.05-0.149,2.1-0.224,3.149
		c-60.153-37.653-69.418-106.551-69.418-106.551c29.592,1.297,53.102,8.101,71.221,17.829
		C875.276,1094.182,875.483,1106.184,875.244,1119.624z"/>
	<path style="fill:#FFB27D;" d="M1062.244,1046.832c0.922-1.885,0.782-3.902,1.688-7.521c0.904-3.619,1.442-10.948,2.804-10.796
		c1.362,0.152,2.574,2.574,2.271,4.541c-0.192,1.242,0.2,3.775,0.755,5.582c3.281-1.999,8.573-6.365,10.547-9.164
		c7.973-11.303,12.514-13.321,14.634-2.522c1.17,5.962,0.521,13.201-3.381,21.85c-4.895,10.848-13.978,12.262-22.707,13.472
		c-2.391,0.332-8.494,4.594-8.494,4.594l-9.723-13.475C1050.638,1053.392,1060.894,1049.596,1062.244,1046.832z"/>
	<path style="fill:#2A4E96;" d="M1063.703,1056.362c-3.101-8.388-7.922-7.842-7.922-7.842s-89.438,22.288-97.463,23.245
		c-8.026,0.956-96.312-34.473-96.312-34.473s-34.749-15.597-51.026-1.356c-14.144,12.375-14.789,28.05-11.478,41.214
		c3.944,15.688,17.219,27.277,33.265,29.321c36.018,4.587,107.879,13.222,122.942,11.126
		c33.523-4.668,109.479-48.514,109.479-48.514S1066.139,1062.951,1063.703,1056.362z"/>
	<g>
		<g>
			<path style="fill:#FFB27D;" d="M1650.304,1330.146l30.83,15.757l6.178-21.389c0,0-3.929-7.401-5.704-19.526
				c-0.744-5.099-1.111-11.033-0.639-17.605l-25.119,12.861c0,0,0.599,2.323,1.001,5.75c0.427,3.704,0.618,8.698-0.435,13.441
				C1655.508,1323.508,1653.686,1327.396,1650.304,1330.146z"/>
			<path style="fill:#FFB27D;" d="M1705.338,1334.496c0,0,28.453-36.841,42.3-48.274c0,0,18.94-46.702,20.479-49.78
				c1.538-3.076,11.372,2.564,11.372,2.564s-6.956,45.399-14.293,58.857c-7.337,13.457-30.087,58.624-46.145,60.3
				C1702.995,1359.839,1705.338,1334.496,1705.338,1334.496z"/>
			<path style="fill:#2C3A64;" d="M1730.646,1670.397c0,0,0.638,7.021-4.551,12.138c-3.269,3.225-5.267,7.251-5.536,11.296
				c-0.229,3.417,3.503,5.661,6.397,3.829l30.548-19.326c2.602-1.646,3.212-5.174,1.313-7.599c-1.659-2.118-3.564-4.603-4.945-6.559
				c-3.018-4.269-9.684-5.025-9.684-5.025L1730.646,1670.397z"/>
			<path style="fill:#2C3A64;" d="M1645.477,1645.062c0,0,3.169,6.297,0.219,12.962c-1.858,4.197-2.24,8.676-1.009,12.537
				c1.042,3.264,5.337,3.982,7.357,1.217l21.331-29.184c1.816-2.484,1.09-5.991-1.564-7.55c-2.321-1.362-5.004-2.976-7.008-4.288
				c-4.371-2.865-10.851-1.123-10.851-1.123L1645.477,1645.062z"/>
			<path style="fill:#35488B;" d="M1592.676,1581.772c4.537,16.845,50.527,71.257,50.527,71.257s21.381-14.251,21.381-25.268
				c0,0-23.324-48.583-23.324-54.412c0-1.384,3.152-6.938,7.93-14.686c8.24-13.367,21.315-33.281,31.422-49.684
				c8.674-14.094,15.152-25.584,14.469-28.094c-1.943-7.122-67.831-19.59-67.831-19.59S1588.147,1564.928,1592.676,1581.772z"/>
			<path style="fill:#2C3A64;" d="M1649.189,1558.664c8.24-13.367,21.315-33.281,31.422-49.684
				c-1.234-20.548-7.037-38.519-18.054-38.519c-27.519,0-23.35,2.085-23.35,2.085S1632.095,1533.331,1649.189,1558.664z"/>
			<path style="fill:#35488B;" d="M1669.715,1474.632c0,0-6.014,112.994,3.453,127.171c9.467,14.176,51.099,74.217,51.099,74.217
				s32.573-8.338,30.854-18.346c0,0-35.043-67.618-35.003-76.791c0.041-9.173,16.657-92.074-0.854-106.251
				C1701.751,1460.456,1669.715,1474.632,1669.715,1474.632z"/>
			<path style="fill:#FFB27D;" d="M1648.105,1337.734c0,0-41.046-36.615-43.553-41.647c-2.506-5.032-14.15-50.009-14.15-50.009
				l-9.781,1.196c0,0,1.866,53.933,5.987,64.439c4.121,10.508,52.469,55.183,52.469,55.183L1648.105,1337.734z"/>
			<path style="fill:#FFB93E;" d="M1624.685,1357.309c-0.171-2.565-15.608-12.993-15.608-12.993
				c-3.247-19.491,9.155-33.526,9.155-33.526l18.591,13.225c3.59,0.215,5.129,1.522,5.129,1.522
				c3.076-0.83,12.269-0.127,12.269-0.127c-0.135,4.433,1.027,8.604,8.806,9.621c10.349,1.349,19.601-5.712,24.286-10.513
				c0,0,6.269-0.546,14.133,2.019c0,0,3.807-1.947,7.864-2.067l15.218-13.68c0,0,17.827,5.147,20.64,32.016
				c0,0-20.016,15.232-21.461,27.265l0,0l-0.548,4.561l-1.94,16.158l-3.413,28.34l10.164,56.446
				c0.088,0.494,0.136,0.989,0.136,1.474c0,3.773-2.579,7.168-6.372,8.079c0,0-0.873,0.146-2.482,0.369
				c-10.776,1.512-54.517,6.73-88.811-2.58c-7.71-2.095-12.792-9.457-12.152-17.429l7.256-91.056l0,0
				C1625.542,1374.432,1624.855,1359.873,1624.685,1357.309z"/>
			<path style="fill:#FFA412;" d="M1705.37,1442.88c0.679,19.688,2.609,36.379,13.879,42.616c1.609-0.224,2.482-0.369,2.482-0.369
				c3.793-0.911,6.372-4.306,6.372-8.079c0-0.484-0.048-0.979-0.136-1.474l-10.164-56.446l3.413-28.34
				c-0.164-0.495-0.251-0.757-0.251-0.757S1704.507,1417.663,1705.37,1442.88z"/>
			<path style="fill:#EA9C68;" d="M1656.416,1319.436c14.283-0.381,25.191-14.447,25.191-14.447l-24.757,1.006
				C1657.277,1309.698,1657.469,1314.692,1656.416,1319.436z"/>
			<g>
				<path style="fill:#FFB27D;" d="M1649.487,1311.478c0,0,28.491,7.522,38.32-15.134c10.607-24.451-1.029-42.265-10.706-43.468
					c-19.293-2.396-30.499,4.961-33.891,12.738C1639.82,1273.391,1633.768,1307.468,1649.487,1311.478z"/>
				<path style="fill:#FFFFFF;" d="M1660.781,1298.723c0,0-1.191,2.938-8.707,1.289c0,0-6.312-1.384-5.595-4.706
					C1646.479,1295.306,1653.028,1293.88,1660.781,1298.723z"/>
				<g>
					<path style="fill:#2C3A64;" d="M1682.72,1304.27c0,0,3.345-9.806,2.943-15.04c0,0,7.436-9.48,3.103-11.827
						c-4.332-2.346-6.669,3.264-7.662,2.161c-0.993-1.101-2.541-19.729-7.803-19.141c-5.263,0.588-24.726,6.62-33.259-0.739
						c-8.533-7.357,12.168-36.108,47.25-25.003S1715.211,1284.792,1682.72,1304.27z"/>
					<path style="fill:#2C3A64;" d="M1704.6,1249.977c0,0,1.589-4.738-0.117-8.124c0,0-0.084,4.663-1.914,6.738
						C1700.735,1250.666,1704.6,1249.977,1704.6,1249.977z"/>
					<path style="fill:#2C3A64;" d="M1703.869,1246.663c0,0,4.339-0.492,6.389,2.845c0,0-3.058-2.066-6.147,0.125L1703.869,1246.663
						z"/>
				</g>
			</g>
			<path style="fill:#FFB27D;" d="M1590.402,1246.078c0,0-0.193-4.239,1.177-7.807c1.37-3.566,0.563-12.829-1.187-12.309
				c-1.75,0.521-0.966,3.849-2.924,3.458c-1.957-0.392-5.088-11.157-7.633-10.178c-2.545,0.978-4.396,4.6-3.613,12.429
				s4.398,15.603,4.398,15.603L1590.402,1246.078z"/>
			<path style="fill:#FFB27D;" d="M1768.334,1236.366c0,0,1.031-4.661,0.199-8.878s1.845-14.328,3.684-13.413
				c1.839,0.914,0.331,4.452,2.575,4.394c2.245-0.056,7.788-11.383,10.42-9.81c2.632,1.574,3.985,5.943,1.61,14.47
				s-7.878,16.445-7.878,16.445L1768.334,1236.366z"/>
		</g>
		<g>
			<path style="fill:#FFB27D;" d="M2017.699,1041.037c-2.695,4.771-1.313,95.121-3.983,102.731
				c-8.524,24.282-2.132,86.269-6.718,92.106c-4.586,5.837-9.59,18.346-7.087,24.183c2.501,5.837,3.273,13.327,8.933,13.126
				c5.66-0.2,39.162-199.466,39.54-204.646C2048.76,1063.358,2017.699,1041.037,2017.699,1041.037z"/>
			<path style="fill:#FFB27D;" d="M2159.465,1183.617c0,0,7.227,8.895,6.671,13.064s-6.671,14.177-6.671,14.177
				s-15.566-31.411-14.455-33.913c1.111-2.501,10.563-4.447,10.563-4.447L2159.465,1183.617z"/>
			<path style="fill:#2A4E96;" d="M1986.967,1673.234l14.938,5.563c0,0,64.89-89.996,72.878-169.178
				c1.428-14.137,0.951-27.833-2.134-40.48c0,0,0.634-3.623,1.743-10.026c0.512-2.988,1.146-6.587,1.866-10.71
				c2.11-12.086,5.014-28.625,8.331-47.456c7.636-43.336,17.526-98.733,25.21-139.458l-4.024-1.294l-43.555-14.05l-9.001-28.59
				l-32.432-8.537c0,0-7.244,14.172-13.722,81.12c-1.195,8.782-2.28,18.466-3.098,28.968c-2.524,32.054-2.708,71.814,3.086,117.271
				c1.488,11.636,3.366,23.65,5.696,35.993c1.707,9.05,1.964,21.382,1.243,35.541
				C2010.727,1572.641,1986.967,1673.234,1986.967,1673.234z"/>
			<path style="fill:#1E3D70;" d="M2003.969,1319.105l70.424,140.007c0.512-2.988,1.146-6.587,1.866-10.71
				c2.11-12.086,5.014-28.625,8.331-47.456c7.636-43.336,17.526-98.733,25.21-139.458l-4.024-1.294l-43.555-14.05l-9.001-28.59
				l-32.432-8.537c0,0-7.244,14.172-13.722,81.12C2005.871,1298.92,2004.786,1308.604,2003.969,1319.105z"/>
			<path style="fill:#2A4E96;" d="M2034.95,1226.984l1.63-13.98c27.314,7.255,100.29-20.271,100.29-20.271
				s26.46,23.259,22.987,79.011c-1.697,27.214-4.795,142.849-8.028,177.066c-1.171,12.401-2.194,21.228-2.612,24.753
				c-0.009,0.017-0.009,0.025-0.009,0.034c-0.128,1.074,0.248,2.091,0.794,3.029c4.764,8.083,8.706,16.499,11.941,25.111
				c31.752,84.61-4.892,188.81-4.892,188.81l-9.508-3.832c0,0-20.852-115.961-37.795-167.189
				c-2.876-8.689-5.633-15.518-8.159-19.598c-7.366-11.89-14.203-31.316-20.408-54.422c-11.728-43.684-21.168-100.51-27.449-144.373
				C2052.865,1301.172,2034.95,1226.984,2034.95,1226.984z"/>
			<path style="fill:#FFB27D;" d="M2151.373,1024.292c-0.031,0.091-0.078,0.188-0.125,0.277
				c-8.299,19.289-24.059,44.411-50.508,47.083c-8.055,0.816-17.093-0.444-27.214-4.585c-11.612-4.751-20.513-10.696-27.31-17.256
				c11.288-20.76,24.397-36.077,25-36.783c0.026-0.023,0.027-0.032,0.027-0.032s1.737-0.118,4.612-0.275
				c1.149-1.015,2.038-4.327,2.731-8.654c0.46-2.862,0.83-6.173,1.123-9.555c0.316-3.649,0.556-7.394,0.721-10.742
				c0.339-6.596,0.428-11.696,0.428-11.696l37.238-3.946l2.212-0.231c-1.05,11.206-0.624,20.848,0.566,28.491
				c0.837,5.415,2.061,9.818,3.422,13.086c0.988,2.399,2.058,4.171,3.1,5.279c2.82,0.607,6.222,1.419,9.423,2.335
				c3.268,0.945,8.885,2.645,14.434,7.105C2151.293,1024.229,2151.342,1024.257,2151.373,1024.292z"/>
			<path style="fill:#ED985F;" d="M2118.784,989.809c0,0-18.131,15.333-40.196,14.258c0.46-2.862,0.83-6.173,1.123-9.555
				c0.316-3.649,0.556-7.394,0.721-10.742C2089.996,983.506,2102.757,985.112,2118.784,989.809z"/>
			<path style="fill:#2C3A64;" d="M2163.139,907.343c1.266-1.597,15.52-18.346,43.131,0.508c0,0-14.403-8.146-20.967-4.004
				c0,0,14.301-0.572,19.945,7.135c5.645,7.707,0.51,23.741-2.556,28.004c-3.063,4.264-17.163,14.91-22.675,12.647
				c-2.088-0.856-4.035-2.467-5.65-4.138c-0.182,2.847-0.535,5.876-1.125,9.114c-5.453,29.953-32.369,43.374-39.718,34.311
				c-4.713-5.813-13.676,2.931-13.676,2.931l-22.987-87.523C2096.861,906.328,2149.322,878.533,2163.139,907.343z"/>
			<path style="fill:#FFB27D;" d="M2141.64,948.24c-2.327,8.304-7.527,18.014-12.368,29.784
				c-7.964,19.337-31.72,16.175-45.668,12.358c-0.008,0-0.008,0-0.016,0c-6.25-1.714-10.529-3.553-10.529-3.553
				c-11.33-5.717,2.973-54.877,9.097-63.287c6.124-8.417,16.1-16.805,44.142-3.356C2142.556,927.983,2144.84,936.771,2141.64,948.24
				z"/>
			<path style="fill:#233862;" d="M2101.771,1698.315h75.243c0,0,1.804-11.468-2.127-20.168c-3.766-8.349-9.665-12.142-8.252-22.243
				c-4.781,4.923-12.573,10.436-23.451,8.972c-1.333,2.161-8.604,13.726-13.056,16.925
				C2125.211,1685.334,2103.285,1684.074,2101.771,1698.315z"/>
			<path style="fill:#233862;" d="M1940.213,1698.315h75.244c0,0,2.813-12.001-2.127-20.168c-4.373-7.226-2.697-11.343,0.541-17.319
				c-3.408,1.395-7.817,2.665-12.672,2.387c-3.749-0.216-7.713-1.917-11.19-3.936c-3.238,3.691-17.105,19.408-21.438,22.521
				C1963.654,1685.334,1941.729,1684.074,1940.213,1698.315z"/>
			<path style="fill:#2C3A64;" d="M2089.887,908.509c10.413-5.574,14.909-1.568,16.813,2.175
				c30.138-3.426,47.822,16.633,47.822,16.633c-5.244,21.341-5.516,45.242-5.516,45.242s-10.277,1.699-27.186-10.92
				c-5.165-3.855-8.637-10.075-10.975-16.85c2.387,15.962,9.007,29.475,9.007,29.475c-18.295-19.706-14.473-54.831-14.014-58.523
				c-3.759,1.338-11.37,4.475-15.176,9.047c-5.172,6.216-12.21,20.492-16.286,18.235
				C2074.377,943.024,2074.27,916.869,2089.887,908.509z"/>
			<path style="fill:#B5453C;" d="M2162.463,1082.536c-0.908-1.317-1.433-1.618-1.941-1.868c-0.51-0.258-1.001-0.476-1.827-1.651
				c-2.519-3.618-4.687-6.945-6.071-10.031c-1.534-3.369-2.142-6.487-1.301-9.481c0.643-2.252,1.493-4.503,2.511-6.688
				c0.476-1.033,0.984-2.06,1.518-3.077c5.629-10.665,13.876-19.237,13.876-19.237c-10.24-8.94-32.405-13.41-32.405-13.41
				s-0.342,1.192-1.034,3.11c-4.653,12.651-27.21,29.979-30.988,32.882c-4.72,3.593-50.901,2.067-51.693-5.33
				c-0.784-7.263,17.437-33.722,18.111-34.723c0.025-0.025,0.025-0.042,0.025-0.042c-21.572,0.884-30.528,4.786-30.528,4.786
				c0.001,0.001,0.003,0.003,0.002,0.005c0,0-0.002-0.003-0.003-0.004c0,0-16.898,4.985-31.421,32.973c0,0,8.253,6.172,17.953,9.242
				c-1.46,4.736-2.36,9.766-2.218,15.083c0.025,1,0,2.009,0.192,3.019c18.421,97.184-11.083,135.559-11.083,135.559
				c-9.215,17.004,136.686,43.397,142.731,27.119c2.626-3.786,3.895-8.723,4.194-14.293c0.727-13.1-3.869-29.736-8.664-43.12
				c-1.626-4.57-3.285-8.757-4.762-12.301c-0.959-2.31-1.701-4.687-2.235-7.104c-1.358-6.071-1.358-12.401,0.06-18.513
				C2151.072,1121.321,2158.078,1095.862,2162.463,1082.536z"/>
			<path style="fill:#FFB27D;" d="M2211.616,1143.769l-56.043,28.729l3.892,11.119c0,0,82.982-10.399,87.912-30.772
				L2211.616,1143.769z"/>
			<path style="fill:#9E3530;" d="M2147.637,1171.056c1.477,3.544,3.136,7.73,4.762,12.301c-0.059,0.175-0.083,0.258-0.083,0.258
				c-49.393-37.802,0.308-114.629,0.308-114.629c1.385,3.086,3.553,6.413,6.071,10.031c0.826,1.176,1.317,1.394,1.827,1.651
				c0.509,0.25,1.033,0.551,1.941,1.868c-4.387,13.326-11.391,38.785-17.002,62.902c-1.418,6.111-1.418,12.441-0.06,18.513
				C2145.936,1166.369,2146.678,1168.746,2147.637,1171.056z"/>
			<path style="fill:#FFB27D;" d="M2169.224,1030.496c0,0,71.226,63.849,78.153,122.349c0,0-10.16,3.694-23.186,0
				c-13.025-3.696-83.443-82.296-81.313-91.642C2145.01,1051.86,2169.224,1030.496,2169.224,1030.496z"/>
			<path style="fill:#B5453C;" d="M2155.56,1022.761c0,0,29.043,9.641,41.968,28.82c0,0-10.917,24.799-52.574,31.372
				C2144.953,1082.953,2117.344,1045.226,2155.56,1022.761z"/>
		</g>
		<g>
			<path style="fill:#EA9C68;" d="M2266.884,1336.392c0,0-39.038,25.354-51.563,38.224c0,0-48.092,15.068-51.284,16.352
				c-3.192,1.282,1.629,11.543,1.629,11.543s45.815-3.23,59.826-9.446c14.012-6.215,60.882-25.207,63.862-41.073
				C2292.333,1336.123,2266.884,1336.392,2266.884,1336.392z"/>
			<polygon style="fill:#FFB27D;" points="2312.842,1631.778 2321.591,1678.354 2337.469,1678.354 2341.574,1621.518 			"/>
			<polygon style="fill:#FFB27D;" points="2241.299,1627.592 2231.372,1678.916 2245.288,1679.492 2271.75,1629.459 			"/>
			<path style="fill:#B2443B;" d="M2321.258,1676.581c0,0-3.774,6.835-10.896,8.386c-4.485,0.978-8.326,3.312-10.717,6.586
				c-2.02,2.766-0.065,6.657,3.359,6.657h36.147c3.078,0,5.48-2.656,5.173-5.719c-0.269-2.678-0.551-5.797-0.673-8.188
				c-0.268-5.221-5.895-9.942-5.895-9.942s-4.979,2.819-6.895,3.144C2326.695,1678.21,2321.258,1676.581,2321.258,1676.581z"/>
			<path style="fill:#B2443B;" d="M2231.737,1676.583c0,0-3.734,6.856-10.847,8.448c-4.48,1.003-8.308,3.359-10.68,6.646
				c-2.004,2.778-0.027,6.658,3.398,6.639l36.146-0.206c3.078-0.018,5.465-2.688,5.141-5.748c-0.285-2.676-0.585-5.793-0.721-8.184
				c-0.297-5.22-5.951-9.908-5.951-9.908s-4.962,2.848-6.875,3.183C2237.184,1678.182,2231.737,1676.583,2231.737,1676.583z"/>
			<path style="fill:#F99746;" d="M2233.064,1629.724c0,0,15.037,4.694,31.63,6.195c15.622,1.424,32.623,0.008,39.787-10.813
				c2.079-3.132,3.249-8.573,3.741-15.607c2.993-43.043-19.748-145.814-19.748-145.814h-26.534
				C2261.94,1465.802,2233.064,1629.724,2233.064,1629.724z"/>
			<path style="fill:#ED7D2B;" d="M2264.694,1635.919c15.622,1.424,32.623,0.008,39.787-10.813
				c2.079-3.132,3.249-8.573,3.741-15.607c-0.022-0.077-0.039-0.153-0.062-0.23c-4.233-15.776-15.776-113.515-15.776-113.515
				S2252.705,1600.294,2264.694,1635.919z"/>
			<path style="fill:#F99746;" d="M2346.575,1469.652c0,0,11.929,80.037,17.316,165.461c0,0-37.45,15.392-72.211,3.078
				l-6.351-162.892L2346.575,1469.652z"/>
			<path style="fill:#B2443B;" d="M2328.717,1237.59c0,0,2.412-10.635,12.469-11.151c0,0-3.206,1.916-3.72,3.94
				c0,0,5.839-4.898,14.884-1.624s22.469,12.482,15.707,33.901c-6.76,21.419,7.04,26.729,12.588,40.545
				c5.546,13.817-13.333,16.473-9.419,27.261c3.913,10.788-7.732,36.265-37.354,25.127c-29.624-11.138-36.352-53.865-23.768-64.303
				C2322.688,1280.849,2328.717,1237.59,2328.717,1237.59z"/>
			<path style="fill:#F99F46;" d="M2319.692,1237.016c0,0,13.293-1.777,21.543,6.841c4.455,4.653-0.144,11.341-0.144,11.341
				L2319.692,1237.016z"/>
			<path style="fill:#B2443B;" d="M2279.38,1257.624c0.255-0.422,10.823-17.135,30.581-20.469
				c16.006-2.702,30.988,8.605,33.45,24.65c2.473,16.123-0.05,37.016-26.354,44.541L2279.38,1257.624z"/>
			<g>
				<path style="fill:#FFB27D;" d="M2284.219,1329.467l29.768,17.683l7.523-20.953c0,0-3.45-7.637-4.453-19.85
					c-0.418-5.136-0.408-11.082,0.48-17.611l-25.885,11.241c0,0,0.45,2.356,0.633,5.803c0.191,3.724,0.065,8.72-1.287,13.387
					C2289.834,1323.172,2287.769,1326.938,2284.219,1329.467z"/>
				<path style="fill:#EA9C68;" d="M2290.998,1319.166c14.279,0.525,26.059-12.819,26.059-12.819l-24.771-0.567
					C2292.477,1309.503,2292.351,1314.499,2290.998,1319.166z"/>
				<path style="fill:#FFB27D;" d="M2284.59,1310.784c0,0,27.956,9.315,39.203-12.671c12.139-23.729,1.656-42.245-7.924-44.059
					c-19.103-3.616-30.754,3.014-34.631,10.56C2277.359,1272.16,2269.154,1305.784,2284.59,1310.784z"/>
				<path style="fill:#FFFFFF;" d="M2296.672,1298.771c0,0-1.377,2.857-8.772,0.733c0,0-6.21-1.781-5.285-5.052
					C2282.614,1294.453,2289.24,1293.447,2296.672,1298.771z"/>
			</g>
			<path style="fill:#35488B;" d="M2246.6,1350.116l23.727-19.281l-0.002,0.015c2.804-2.409,6.382-4.141,10.922-4.716
				c1.675-0.212,5.19-0.863,7.151-1.1c-0.332,4.419-0.329,7.987,7.393,9.349c10.282,1.807,20.493-4.408,25.386-8.994
				c8.047,1.52,11.933,2.514,18.338,5.05c3.691,1.462,6.629,4.119,8.463,7.409c1.668,2.988,2.421,6.488,2.006,10.064l-7.9,68.084
				c0,0,9.445,57.974,7.824,58.127c-10.826,1.034-58.178,10.538-92.028-0.281c-5.466-1.751,7.662-32.442,5.027-95.229
				C2244.129,1367.357,2246.6,1350.116,2246.6,1350.116z"/>
			<path style="fill:#B2443B;" d="M2304.178,1256.665c0,0-0.369,21.953,12.28,29.185c0,0-4.997-10.343-3.31-16.661
				c0,0,3.267,19.581,13.26,22.997c9.993,3.415,15.044-36.362-5.629-44.361c-20.672-7.998-41.059,1.502-43.495,15.484
				c-2.438,13.982-0.581,16.897-0.581,16.897S2286.379,1253.604,2304.178,1256.665z"/>
			<path style="fill:#2C3A64;" d="M2349.906,1474.123c1.621-0.153-7.824-58.127-7.824-58.127l7.9-68.084
				c0.415-3.576-0.338-7.076-2.006-10.064c-0.549,0.089-1.086,0.344-1.609,0.785c-16.567,13.98-31.794,70.645-31.794,70.645
				S2306.577,1455.123,2349.906,1474.123z"/>
			<path style="fill:#FFB27D;" d="M2352.366,1355.571c0,0,14.109,53.244,11.525,63.037c-2.583,9.793-30.046,32.462-34.624,33.947
				l-3.3-8.72c0,0,20.896-28.82,19.12-31.934c-3.824-6.707-19.12-45.985-19.12-45.985L2352.366,1355.571z"/>
			<path style="fill:#35488B;" d="M2329.979,1376.234c0,0,16.208,2.833,32.021-13.51c0,0-13.433-39.303-30.178-31.344
				C2315.078,1339.34,2319.105,1366.758,2329.979,1376.234z"/>
			<path style="fill:#FFB27D;" d="M2325.968,1443.836c0,0-13.838,2.716-14.425,7.186c-0.467,3.576,5.826,9.432,9.208,8.197
				c3.384-1.235,8.517-6.663,8.517-6.663L2325.968,1443.836z"/>
			<path style="fill:#EA9C68;" d="M2164.036,1390.967c0,0-20.339-10.514-22.146-6.761s2.502,14.871,6.811,16.262
				c4.308,1.39,16.964,2.042,16.964,2.042L2164.036,1390.967z"/>
		</g>
	</g>
	<path style="fill:#2E3552;" d="M2877.887,1703.936H136.364c-1.712,0-3.113-1.401-3.113-3.113v-1.063
		c0-1.712,1.401-3.113,3.113-3.113h2741.522c1.713,0,3.113,1.401,3.113,3.113v1.063
		C2881,1702.534,2879.6,1703.936,2877.887,1703.936z"/>
</g>
</svg>
