<svg xmlns="http://www.w3.org/2000/svg" viewBox="0 0 64 64"><g id="Layer_32" data-name="Layer 32"><path d="M56,11.765V10a1,1,0,0,0-1.707-.707l-.587.587A30.7,30.7,0,0,0,32,1,31.011,31.011,0,1,0,55.974,12.354C55.979,12.157,56,11.963,56,11.765ZM16.6,49.816l16.9-16.9,1.141,1.141L19.061,52.393A1.74,1.74,0,0,1,16,51.26,2.029,2.029,0,0,1,16.6,49.816Zm5.9-28.9,1.55,1.55a3.242,3.242,0,1,1-4.585,4.586L17.914,25.5Zm3.714,6.569,5.038,4.851-1.918,1.918-4.851-5.038A5.246,5.246,0,0,0,26.214,27.483ZM53.99,12.424a21.39,21.39,0,0,1-17.662,20.49L34.914,31.5ZM32.158,40.067l11.381,11.82a22.959,22.959,0,0,1-21.95.619Zm1.3-1.532,1.9-2.241,13.082,12.6a1.806,1.806,0,1,1-2.553,2.555ZM49.386,47.02,36.771,34.873a23.375,23.375,0,0,0,16.386-11.88A22.911,22.911,0,0,1,49.386,47.02ZM61,32A29,29,0,1,1,32,3a28.722,28.722,0,0,1,20.292,8.293L49.466,14.12A24.742,24.742,0,0,0,32,7a25.021,25.021,0,0,0-12.119,3.129l.971,1.748A23.022,23.022,0,0,1,32,9a22.761,22.761,0,0,1,16.052,6.534L32.666,30.92,26.935,25.4a4.85,4.85,0,0,0-1.47-4.351l-9.758-9.757-1.414,1.414L21.086,19.5,19.5,21.086l-6.793-6.793-1.414,1.414L18.086,22.5,16.5,24.086,9.707,17.293,8.293,18.707l9.757,9.757a4.846,4.846,0,0,0,4.35,1.471l5.519,5.732L15.533,48.053A23.025,23.025,0,0,1,10.31,24.33l-1.885-.667a25.008,25.008,0,0,0,5.9,26.008A4.017,4.017,0,0,0,14,51.26a3.717,3.717,0,0,0,6.213,2.777,24.921,24.921,0,0,0,24.816-.715,3.794,3.794,0,0,0,5.626-4.689,24.964,24.964,0,0,0,3.609-27.992,23.448,23.448,0,0,0,1.452-5.324A29.042,29.042,0,0,1,61,32Z"/></g></svg>