<svg version="1.1" id="Layer_1" xmlns="http://www.w3.org/2000/svg" xmlns:xlink="http://www.w3.org/1999/xlink" x="0px" y="0px"
	 width="100%" viewBox="0 0 256 256" enable-background="new 0 0 256 256" xml:space="preserve">
<path fill="#000000" opacity="1.000000" stroke="none" 
	d="
M202.000000,257.000000 
	C153.645767,257.000000 105.291542,257.000000 56.345913,256.625671 
	C44.328690,254.093689 35.574089,248.107162 30.020182,237.839249 
	C26.205515,230.786804 25.578609,223.382950 26.825565,215.329636 
	C28.523304,204.364944 29.010889,193.212051 29.994658,182.137833 
	C31.340580,166.986877 32.661247,151.833679 34.000145,136.682098 
	C34.993362,125.442429 36.071594,114.209709 36.979172,102.963173 
	C38.060261,89.566559 39.089645,76.164421 39.971428,62.753510 
	C40.670231,52.125515 42.848286,50.000034 53.802685,50.000008 
	C61.758518,49.999985 69.714348,50.000000 77.595161,50.000000 
	C78.104446,46.750938 78.362183,43.845242 79.034042,41.038685 
	C81.950317,28.856718 87.729202,18.188116 98.229301,11.158319 
	C104.575371,6.909636 112.038681,4.329719 119.000000,1.000001 
	C125.354393,1.000000 131.708786,1.000000 138.656281,1.375984 
	C148.094528,3.154517 155.753235,7.165302 162.381958,12.976062 
	C173.465393,22.691828 179.088837,35.246983 180.300323,50.000019 
	C189.544754,50.000019 198.515259,49.952938 207.484970,50.015781 
	C213.984116,50.061314 216.220367,52.020855 216.980042,58.331230 
	C217.448074,62.219040 217.651749,66.137878 218.038437,70.036407 
	C219.343460,83.192757 220.775284,96.337379 221.966721,109.503853 
	C222.809021,118.811852 223.179688,128.163040 224.050568,137.467834 
	C225.220840,149.971451 226.805603,162.436478 227.956146,174.941666 
	C228.842758,184.578003 229.302032,194.253067 230.015945,203.906143 
	C230.353607,208.471634 230.421555,213.113190 231.344696,217.568375 
	C233.758911,229.219498 228.233276,241.691437 219.581497,247.881775 
	C214.266998,251.684296 207.896378,254.010742 202.000000,257.000000 
M106.507935,65.000000 
	C102.072372,65.000000 97.636810,65.000000 92.999596,65.000000 
	C92.999596,72.547867 93.100494,79.527405 92.962387,86.502197 
	C92.877258,90.801567 89.544533,93.980911 85.534767,93.999695 
	C81.278801,94.019630 78.022774,90.676010 78.006615,86.193413 
	C77.981560,79.243614 78.000000,72.293655 78.000000,65.218597 
	C70.146194,65.218597 62.734283,65.218597 55.103653,65.218597 
	C54.722752,71.468994 54.508526,77.532768 53.953907,83.565254 
	C52.726753,96.912842 51.247227,110.237274 50.028389,123.585556 
	C49.207630,132.574203 48.747772,141.595413 47.964005,150.587906 
	C46.713730,164.932953 45.368107,179.270050 43.979782,193.602478 
	C43.445587,199.117218 42.549667,204.598190 42.066532,210.116241 
	C41.640175,214.985748 40.711132,220.025421 41.490311,224.744553 
	C43.513031,236.995255 55.067978,242.033340 63.995640,242.022766 
	C106.827049,241.972092 149.658569,242.020691 192.489944,241.956482 
	C195.555267,241.951889 198.688187,241.622147 201.671432,240.932297 
	C209.971130,239.013107 217.861496,228.548080 217.026550,221.348907 
	C215.559814,208.702255 214.266510,196.034363 213.019287,183.363693 
	C211.928833,172.285629 210.989136,161.192612 210.005325,150.104202 
	C208.659363,134.933838 207.297318,119.764740 206.012283,104.589165 
	C204.907410,91.541618 203.900848,78.485756 202.844055,65.349449 
	C195.144623,65.349449 187.615906,65.349449 179.999985,65.349449 
	C179.999985,72.693298 180.088058,79.689957 179.929016,86.680984 
	C179.895386,88.158783 179.364777,90.409325 178.356354,90.927010 
	C175.807495,92.235474 172.709488,93.743637 170.103210,93.354034 
	C166.738693,92.851097 164.960983,89.738831 164.986435,86.013687 
	C165.033844,79.080063 165.000046,72.145889 165.000046,65.335587 
	C164.123810,65.148972 163.812897,65.025017 163.501892,65.024773 
	C144.836166,65.010048 126.170448,65.005508 106.507935,65.000000 
M128.500000,50.000000 
	C140.624374,50.000000 152.748764,50.000000 164.904343,50.000000 
	C163.152710,28.918140 145.303833,16.544540 130.759567,15.804994 
	C112.693016,14.886346 94.699326,29.422987 93.097786,50.000000 
	C104.584320,50.000000 116.042160,50.000000 128.500000,50.000000 
z"/>
<path fill="#FFFFFF" opacity="1.000000" stroke="none" 
	d="
M118.531342,1.000001 
	C112.038681,4.329719 104.575371,6.909636 98.229301,11.158319 
	C87.729202,18.188116 81.950317,28.856718 79.034042,41.038685 
	C78.362183,43.845242 78.104446,46.750938 77.595161,50.000000 
	C69.714348,50.000000 61.758518,49.999985 53.802685,50.000008 
	C42.848286,50.000034 40.670231,52.125515 39.971428,62.753510 
	C39.089645,76.164421 38.060261,89.566559 36.979172,102.963173 
	C36.071594,114.209709 34.993362,125.442429 34.000145,136.682098 
	C32.661247,151.833679 31.340580,166.986877 29.994658,182.137833 
	C29.010889,193.212051 28.523304,204.364944 26.825565,215.329636 
	C25.578609,223.382950 26.205515,230.786804 30.020182,237.839249 
	C35.574089,248.107162 44.328690,254.093689 55.877254,256.625671 
	C37.685375,257.000000 19.370749,257.000000 1.028062,257.000000 
	C1.028062,171.772461 1.028062,86.544907 1.028062,1.000000 
	C40.020321,1.000000 79.041504,1.000000 118.531342,1.000001 
z"/>
<path fill="#FFFFFF" opacity="1.000000" stroke="none" 
	d="
M202.468658,257.000000 
	C207.896378,254.010742 214.266998,251.684296 219.581497,247.881775 
	C228.233276,241.691437 233.758911,229.219498 231.344696,217.568375 
	C230.421555,213.113190 230.353607,208.471634 230.015945,203.906143 
	C229.302032,194.253067 228.842758,184.578003 227.956146,174.941666 
	C226.805603,162.436478 225.220840,149.971451 224.050568,137.467834 
	C223.179688,128.163040 222.809021,118.811852 221.966721,109.503853 
	C220.775284,96.337379 219.343460,83.192757 218.038437,70.036407 
	C217.651749,66.137878 217.448074,62.219040 216.980042,58.331230 
	C216.220367,52.020855 213.984116,50.061314 207.484970,50.015781 
	C198.515259,49.952938 189.544754,50.000019 180.300323,50.000019 
	C179.088837,35.246983 173.465393,22.691828 162.381958,12.976062 
	C155.753235,7.165302 148.094528,3.154517 139.124695,1.375984 
	C178.293182,1.000000 217.586365,1.000000 256.939758,1.000000 
	C256.939758,86.333336 256.939758,171.666672 256.939758,257.000000 
	C238.900620,257.000000 220.918961,257.000000 202.468658,257.000000 
z"/>
<path fill="#FFFFFF" opacity="1.000000" stroke="none" 
	d="
M107.006332,65.000000 
	C126.170448,65.005508 144.836166,65.010048 163.501892,65.024773 
	C163.812897,65.025017 164.123810,65.148972 165.000046,65.335587 
	C165.000046,72.145889 165.033844,79.080063 164.986435,86.013687 
	C164.960983,89.738831 166.738693,92.851097 170.103210,93.354034 
	C172.709488,93.743637 175.807495,92.235474 178.356354,90.927010 
	C179.364777,90.409325 179.895386,88.158783 179.929016,86.680984 
	C180.088058,79.689957 179.999985,72.693298 179.999985,65.349449 
	C187.615906,65.349449 195.144623,65.349449 202.844055,65.349449 
	C203.900848,78.485756 204.907410,91.541618 206.012283,104.589165 
	C207.297318,119.764740 208.659363,134.933838 210.005325,150.104202 
	C210.989136,161.192612 211.928833,172.285629 213.019287,183.363693 
	C214.266510,196.034363 215.559814,208.702255 217.026550,221.348907 
	C217.861496,228.548080 209.971130,239.013107 201.671432,240.932297 
	C198.688187,241.622147 195.555267,241.951889 192.489944,241.956482 
	C149.658569,242.020691 106.827049,241.972092 63.995640,242.022766 
	C55.067978,242.033340 43.513031,236.995255 41.490311,224.744553 
	C40.711132,220.025421 41.640175,214.985748 42.066532,210.116241 
	C42.549667,204.598190 43.445587,199.117218 43.979782,193.602478 
	C45.368107,179.270050 46.713730,164.932953 47.964005,150.587906 
	C48.747772,141.595413 49.207630,132.574203 50.028389,123.585556 
	C51.247227,110.237274 52.726753,96.912842 53.953907,83.565254 
	C54.508526,77.532768 54.722752,71.468994 55.103653,65.218597 
	C62.734283,65.218597 70.146194,65.218597 78.000000,65.218597 
	C78.000000,72.293655 77.981560,79.243614 78.006615,86.193413 
	C78.022774,90.676010 81.278801,94.019630 85.534767,93.999695 
	C89.544533,93.980911 92.877258,90.801567 92.962387,86.502197 
	C93.100494,79.527405 92.999596,72.547867 92.999596,65.000000 
	C97.636810,65.000000 102.072372,65.000000 107.006332,65.000000 
z"/>
<path fill="#FFFFFF" opacity="1.000000" stroke="none" 
	d="
M128.000000,50.000000 
	C116.042160,50.000000 104.584320,50.000000 93.097786,50.000000 
	C94.699326,29.422987 112.693016,14.886346 130.759567,15.804994 
	C145.303833,16.544540 163.152710,28.918140 164.904343,50.000000 
	C152.748764,50.000000 140.624374,50.000000 128.000000,50.000000 
z"/>
</svg>